<svg height="40px" width="40px" version="1.1" xmlns="http://www.w3.org/2000/svg"
     xmlns:xlink="http://www.w3.org/1999/xlink" viewBox="0 0 450 450" xml:space="preserve"
     fill="#000000">
    <g>
        <polygon style="fill:#E6E9ED;"
                 points="0,0 470,0 470,470 0,470"></polygon>
        <path style="fill:#868686;"
              d="M110,10H24c-5.886,0-10.664,4.762-10.664,10.648c0,5.886,4.777,10.663,10.664,10.663 h85.261c5.886,0,10.664-4.777,10.664-10.663S115.886,10,110,10z"></path>
        <path style="fill:#3e3e3e;"
              d="M285,10H164c-5.886,0-10.664,4.762-10.664,10.648c0,5.886,4.777,10.663,10.664,10.663 h121.261c5.886,0,10.664-4.777,10.664-10.663S290.886,10,285,10z"></path>
        <path style="fill:#868686;"
              d="M427,10H341c-5.886,0-10.664,4.762-10.664,10.648c0,5.886,4.777,10.663,10.664,10.663 h85.261c5.886,0,10.664-4.777,10.664-10.663S432.886,10,427,10z"></path>
        <polygon style="fill:#6488FF;"
                 points="150,40 300,40 300,110 150,110"></polygon>
        <polygon style="fill:#656D78;"
                 points="400,450 0,450 0,50 450,50 450,450"></polygon>
        <path style="fill:#FFCE54;"
              d="M223.81,96H53.287c-5.886,0-10.664,4.777-10.664,10.664c0,5.886,4.777,10.647,10.664,10.647H223.81c5.886,0,10.664-4.762,10.664-10.647C234.473,100,229.696,96,223.81,96z"></path>
        <path style="fill:#FFCE54;"
              d="M223.81,309.086H53.287c-5.886,0-10.664,4.777-10.664,10.664c0,5.886,4.777,10.647,10.664,10.647H223.81c5.886,0,10.664-4.762,10.664-10.647C234.473,313.863,229.696,309.086,223.81,309.086z"></path>
        <path style="fill:#FC6E51;"
              d="M373.037,138.548H53.287c-5.886,0-10.664,4.777-10.664,10.663s4.777,10.664,10.664,10.664h319.75 c5.885,0,10.646-4.778,10.646-10.664C383.684,143.325,378.922,138.548,373.037,138.548z"></path>
        <path style="fill:#AC92EB;"
              d="M53.287,202.498H223.81c5.886,0,10.664-4.762,10.664-10.648s-4.777-10.663-10.664-10.663H53.287 c-5.886,0-10.664,4.777-10.664,10.663C42.623,197.736,47.401,202.498,53.287,202.498z"></path>
        <path style="fill:#48CFAD;"
              d="M287.76,223.825H53.287c-5.886,0-10.664,4.762-10.664,10.648c0,5.901,4.777,10.664,10.664,10.664 H287.76c5.885,0,10.664-4.762,10.664-10.664C298.424,228.587,293.645,223.825,287.76,223.825z"></path>
        <path style="fill:#5D9CEC;"
              d="M53.287,287.776h149.211c5.886,0,10.664-4.778,10.664-10.664s-4.777-10.664-10.664-10.664H53.287 c-5.886,0-10.664,4.778-10.664,10.664S47.401,287.776,53.287,287.776z"></path>
        <path style="fill:#FFCE54;"
              d="M223.81,309.086H53.287c-5.886,0-10.664,4.777-10.664,10.664c0,5.886,4.777,10.647,10.664,10.647 H223.81c5.886,0,10.664-4.762,10.664-10.647C234.473,313.863,229.696,309.086,223.81,309.086z"></path>
        <path style="fill:#ED5564;"
              d="M138.548,351.725H53.287c-5.886,0-10.664,4.762-10.664,10.648c0,5.886,4.777,10.663,10.664,10.663 h85.261c5.886,0,10.664-4.777,10.664-10.663S144.434,351.725,138.548,351.725z"></path>
        <path style="fill:#eae0c8;"
              d="M287.76,394.3H53.287c-5.886,0-10.664,4.762-10.664,10.648c0,5.901,4.777,10.664,10.664,10.664H287.76c5.885,0,10.664-4.762,10.664-10.664C298.424,399,293.645,394.3,287.76,394.3z"></path>
    </g>
</svg>
